<svg width="150" height="53" viewBox="0 0 150 53" fill="none" xmlns="http://www.w3.org/2000/svg">
<path d="M72.4489 33V19.9091H76.0795V24.9886H77.1023L80.6648 19.9091H84.9261L80.2983 26.4034L84.9773 33H80.6648L77.4347 28.3551H76.0795V33H72.4489ZM88.5271 33.2557C87.1862 33.2557 86.0328 32.9716 85.0668 32.4034C84.1066 31.8295 83.368 31.0341 82.8509 30.017C82.3396 29 82.0839 27.8295 82.0839 26.5057C82.0839 25.1648 82.3424 23.9886 82.8595 22.9773C83.3822 21.9602 84.1237 21.1676 85.0839 20.5994C86.0441 20.0256 87.1862 19.7386 88.51 19.7386C89.6521 19.7386 90.6521 19.946 91.51 20.3608C92.368 20.7756 93.047 21.358 93.547 22.108C94.047 22.858 94.3225 23.7386 94.3737 24.75H90.9475C90.8509 24.0966 90.5953 23.571 90.1805 23.1733C89.7714 22.7699 89.2345 22.5682 88.5697 22.5682C88.0072 22.5682 87.5157 22.7216 87.0953 23.0284C86.6805 23.3295 86.3566 23.7699 86.1237 24.3494C85.8907 24.929 85.7742 25.6307 85.7742 26.4545C85.7742 27.2898 85.8879 28 86.1151 28.5852C86.3481 29.1705 86.6748 29.6165 87.0953 29.9233C87.5157 30.2301 88.0072 30.3835 88.5697 30.3835C88.9845 30.3835 89.3566 30.2983 89.6862 30.1278C90.0214 29.9574 90.297 29.7102 90.5129 29.3864C90.7345 29.0568 90.8793 28.6619 90.9475 28.2017H94.3737C94.3168 29.2017 94.0441 30.0824 93.5555 30.8438C93.0725 31.5994 92.4049 32.1903 91.5526 32.6165C90.7004 33.0426 89.6918 33.2557 88.5271 33.2557ZM97.0712 33.2472C96.236 33.2472 95.4916 33.1023 94.8382 32.8125C94.1848 32.517 93.6678 32.0824 93.2871 31.5085C92.9121 30.929 92.7246 30.2074 92.7246 29.3438C92.7246 28.6165 92.8581 28.0057 93.1252 27.5114C93.3922 27.017 93.7559 26.6193 94.2161 26.3182C94.6763 26.017 95.199 25.7898 95.7843 25.6364C96.3752 25.483 96.9945 25.375 97.6422 25.3125C98.4036 25.233 99.0172 25.1591 99.4831 25.0909C99.949 25.017 100.287 24.9091 100.497 24.767C100.708 24.625 100.813 24.4148 100.813 24.1364V24.0852C100.813 23.5455 100.642 23.1278 100.301 22.8324C99.9661 22.5369 99.4888 22.3892 98.8695 22.3892C98.2161 22.3892 97.6962 22.5341 97.3098 22.8239C96.9235 23.108 96.6678 23.4659 96.5428 23.8977L93.1848 23.625C93.3553 22.8295 93.6905 22.142 94.1905 21.5625C94.6905 20.9773 95.3354 20.5284 96.1252 20.2159C96.9206 19.8977 97.8411 19.7386 98.8865 19.7386C99.6138 19.7386 100.31 19.8239 100.975 19.9943C101.645 20.1648 102.239 20.429 102.756 20.7869C103.279 21.1449 103.691 21.6051 103.992 22.1676C104.293 22.7244 104.443 23.392 104.443 24.1705V33H101V31.1847H100.898C100.688 31.5938 100.406 31.9545 100.054 32.267C99.7019 32.5739 99.2786 32.8153 98.7843 32.9915C98.2899 33.1619 97.7189 33.2472 97.0712 33.2472ZM98.111 30.7415C98.6451 30.7415 99.1166 30.6364 99.5257 30.4261C99.9348 30.2102 100.256 29.9205 100.489 29.5568C100.722 29.1932 100.838 28.7812 100.838 28.321V26.9318C100.725 27.0057 100.568 27.0739 100.369 27.1364C100.176 27.1932 99.9576 27.2472 99.7132 27.2983C99.4689 27.3437 99.2246 27.3864 98.9803 27.4261C98.736 27.4602 98.5144 27.4915 98.3155 27.5199C97.8894 27.5824 97.5172 27.6818 97.199 27.8182C96.8809 27.9545 96.6337 28.1392 96.4576 28.3722C96.2814 28.5994 96.1934 28.8835 96.1934 29.2244C96.1934 29.7188 96.3723 30.0966 96.7303 30.358C97.0939 30.6136 97.5541 30.7415 98.111 30.7415ZM107.369 28.2102L112.082 19.9091H115.661V33H112.201V24.6733L107.505 33H103.9V19.9091H107.369V28.2102ZM111.46 15.3409H113.991C113.985 16.375 113.602 17.2074 112.84 17.8381C112.085 18.4687 111.062 18.7841 109.772 18.7841C108.477 18.7841 107.451 18.4687 106.696 17.8381C105.94 17.2074 105.562 16.375 105.562 15.3409H108.076C108.071 15.733 108.196 16.0852 108.451 16.3977C108.713 16.7102 109.153 16.8665 109.772 16.8665C110.375 16.8665 110.806 16.7131 111.068 16.4062C111.329 16.0994 111.46 15.7443 111.46 15.3409ZM115.212 33V19.9091H118.843V24.9886H119.865L123.428 19.9091H127.689L123.061 26.4034L127.74 33H123.428L120.198 28.3551H118.843V33H115.212ZM131.29 33.2557C129.966 33.2557 128.821 32.9744 127.856 32.4119C126.895 31.8437 126.154 31.054 125.631 30.0426C125.108 29.0256 124.847 27.8466 124.847 26.5057C124.847 25.1534 125.108 23.9716 125.631 22.9602C126.154 21.9432 126.895 21.1534 127.856 20.5909C128.821 20.0227 129.966 19.7386 131.29 19.7386C132.614 19.7386 133.756 20.0227 134.716 20.5909C135.682 21.1534 136.427 21.9432 136.949 22.9602C137.472 23.9716 137.733 25.1534 137.733 26.5057C137.733 27.8466 137.472 29.0256 136.949 30.0426C136.427 31.054 135.682 31.8437 134.716 32.4119C133.756 32.9744 132.614 33.2557 131.29 33.2557ZM131.307 30.4432C131.91 30.4432 132.412 30.2727 132.816 29.9318C133.219 29.5852 133.523 29.1136 133.728 28.517C133.938 27.9205 134.043 27.2415 134.043 26.4801C134.043 25.7188 133.938 25.0398 133.728 24.4432C133.523 23.8466 133.219 23.375 132.816 23.0284C132.412 22.6818 131.91 22.5085 131.307 22.5085C130.699 22.5085 130.188 22.6818 129.773 23.0284C129.364 23.375 129.054 23.8466 128.844 24.4432C128.64 25.0398 128.537 25.7188 128.537 26.4801C128.537 27.2415 128.64 27.9205 128.844 28.517C129.054 29.1136 129.364 29.5852 129.773 29.9318C130.188 30.2727 130.699 30.4432 131.307 30.4432ZM136.734 33V19.9091H140.365V24.9886H141.388L144.95 19.9091H149.211L144.584 26.4034L149.263 33H144.95L141.72 28.3551H140.365V33H136.734Z" fill="black"/>
<rect y="5.68059" width="19.0015" height="19.0015" transform="matrix(0.704127 0.710074 -0.704127 0.710074 26.452 1.64695)" stroke="black" stroke-width="8"/>
<path d="M35.9876 5.61565L55.0001 24.7887L35.9877 43.9617L27.4315 35.2411L43.3649 19.173L32.9086 8.62841L35.9876 5.61565Z" fill="#18C9E1"/>
<path d="M22.4519 40.2623L26.4353 36.2453L30.9166 40.7644L19.058 53L0.0455298 33.827L8.01224 25.7007L22.4519 40.2623Z" fill="#9AEDF9"/>
</svg>
