<svg width="24" height="24" viewBox="0 0 24 24" fill="none" xmlns="http://www.w3.org/2000/svg">
<g clip-path="url(#clip0_162_486)">
<path fill-rule="evenodd" clip-rule="evenodd" d="M12 24C18.6274 24 24 18.6274 24 12C24 5.37258 18.6274 0 12 0C5.37258 0 0 5.37258 0 12C0 18.6274 5.37258 24 12 24ZM17.9903 7.40212C17.9642 7.2721 17.8876 7.15773 17.7771 7.08417C17.6667 7.01056 17.5316 6.98374 17.4015 7.00962C17.2713 7.0355 17.1567 7.11195 17.083 7.22217L11.4145 15.7156L7.84182 12.1469C7.74693 12.0586 7.62142 12.0105 7.49174 12.0128C7.36206 12.0151 7.23833 12.0675 7.14661 12.1591C7.0549 12.2508 7.00237 12.3743 7.00008 12.5039C6.99779 12.6334 7.04593 12.7588 7.13435 12.8536L11.1389 16.8536C11.1913 16.9059 11.2546 16.9459 11.3243 16.9708C11.394 16.9957 11.4683 17.0048 11.542 16.9976C11.6157 16.9903 11.6868 16.9668 11.7503 16.9288C11.8138 16.8907 11.868 16.8391 11.9091 16.7776L17.9159 7.77751C17.9896 7.66717 18.0163 7.53215 17.9903 7.40212Z" fill="white"/>
</g>
<defs>
<clipPath id="clip0_162_486">
<rect width="24" height="24" fill="white"/>
</clipPath>
</defs>
</svg>
