<svg width="26" height="23" viewBox="0 0 26 23" fill="none" xmlns="http://www.w3.org/2000/svg">
<path fill-rule="evenodd" clip-rule="evenodd" d="M9.96796 2.50349C11.3155 0.170161 14.6848 0.170161 16.0311 2.50349L24.612 17.3762C25.9583 19.7095 24.2736 22.6262 21.5798 22.6262H4.41929C1.72546 22.6262 0.0419603 19.7095 1.38829 17.3762L9.96679 2.50349H9.96796ZM13.0001 8.62499C13.2322 8.62499 13.4548 8.71718 13.6188 8.88128C13.7829 9.04537 13.8751 9.26793 13.8751 9.49999V13.875C13.8751 14.1071 13.7829 14.3296 13.6188 14.4937C13.4548 14.6578 13.2322 14.75 13.0001 14.75C12.7681 14.75 12.5455 14.6578 12.3814 14.4937C12.2173 14.3296 12.1251 14.1071 12.1251 13.875V9.49999C12.1251 9.26793 12.2173 9.04537 12.3814 8.88128C12.5455 8.71718 12.7681 8.62499 13.0001 8.62499ZM13.0001 18.25C13.2322 18.25 13.4548 18.1578 13.6188 17.9937C13.7829 17.8296 13.8751 17.6071 13.8751 17.375C13.8751 17.1429 13.7829 16.9204 13.6188 16.7563C13.4548 16.5922 13.2322 16.5 13.0001 16.5C12.7681 16.5 12.5455 16.5922 12.3814 16.7563C12.2173 16.9204 12.1251 17.1429 12.1251 17.375C12.1251 17.6071 12.2173 17.8296 12.3814 17.9937C12.5455 18.1578 12.7681 18.25 13.0001 18.25Z" fill="white"/>
</svg>
