<svg width="24" height="24" viewBox="0 0 24 24" fill="none" xmlns="http://www.w3.org/2000/svg">
<g clip-path="url(#clip0_270_1350)">
<path fill-rule="evenodd" clip-rule="evenodd" d="M0 12C0 5.37231 5.37231 0 12 0C18.6277 0 24 5.37231 24 12C24 18.6277 18.6277 24 12 24C5.37231 24 0 18.6277 0 12ZM10.7151 10.2252C12.1255 9.52 13.7145 10.7951 13.3317 12.3249L12.4591 15.8154L12.5108 15.7908C12.7277 15.6954 12.9729 15.6871 13.1957 15.7676C13.4186 15.848 13.6019 16.0111 13.7079 16.223C13.8138 16.4349 13.8343 16.6794 13.7649 16.906C13.6956 17.1325 13.5418 17.3237 13.3354 17.44L13.2862 17.4671C11.8745 18.1723 10.2855 16.8972 10.6683 15.3674L11.5422 11.8769L11.4905 11.9015C11.3816 11.962 11.2616 11.9999 11.1377 12.0128C11.0138 12.0257 10.8886 12.0134 10.7696 11.9766C10.6506 11.9399 10.5402 11.8794 10.4452 11.7989C10.3502 11.7183 10.2724 11.6194 10.2167 11.508C10.1609 11.3966 10.1282 11.2751 10.1207 11.1508C10.1131 11.0264 10.1308 10.9019 10.1726 10.7845C10.2145 10.6672 10.2797 10.5596 10.3642 10.4681C10.4488 10.3767 10.5509 10.3032 10.6646 10.2523L10.7151 10.2252ZM12 8.30769C12.2448 8.30769 12.4796 8.21044 12.6527 8.03733C12.8258 7.86422 12.9231 7.62943 12.9231 7.38462C12.9231 7.1398 12.8258 6.90501 12.6527 6.7319C12.4796 6.55879 12.2448 6.46154 12 6.46154C11.7552 6.46154 11.5204 6.55879 11.3473 6.7319C11.1742 6.90501 11.0769 7.1398 11.0769 7.38462C11.0769 7.62943 11.1742 7.86422 11.3473 8.03733C11.5204 8.21044 11.7552 8.30769 12 8.30769Z" fill="white"/>
</g>
<defs>
<clipPath id="clip0_270_1350">
<rect width="24" height="24" fill="white"/>
</clipPath>
</defs>
</svg>
